<!-- Generated by IcoMoon.io -->
<svg version="1.1" xmlns="http://www.w3.org/2000/svg" width="768" height="768" viewBox="0 0 768 768">
<title></title>
<g id="icomoon-ignore">
</g>
<path fill="#000" d="M511.5 415.5c75 0 225 37.5 225 112.5v79.5h-192v-79.5c0-48-25.5-84-63-111 10.5-1.5 21-1.5 30-1.5zM256.5 415.5c75 0 223.5 37.5 223.5 112.5v79.5h-448.5v-79.5c0-75 150-112.5 225-112.5zM256.5 352.5c-52.5 0-96-43.5-96-96s43.5-96 96-96 94.5 43.5 94.5 96-42 96-94.5 96zM511.5 352.5c-52.5 0-96-43.5-96-96s43.5-96 96-96 96 43.5 96 96-43.5 96-96 96z"></path>
</svg>
