<!-- Generated by IcoMoon.io -->
<svg version="1.1" xmlns="http://www.w3.org/2000/svg" width="640" height="640" viewBox="0 0 640 640">
<title></title>
<g id="icomoon-ignore">
</g>
<path d="M320 12.8c-169.44 0-307.232 137.824-307.232 307.2s137.792 307.2 307.232 307.2c169.376 0 307.2-137.824 307.2-307.2s-137.824-307.2-307.2-307.2zM582.016 320c0 59.936-20.352 115.2-54.272 159.36-9.6-7.488-19.808-27.744-10.208-48.736 9.696-21.12 12.224-70.016 9.984-89.056-2.112-19.008-12-64.8-38.848-65.248-26.816-0.384-45.216-9.248-61.152-41.056-33.056-66.176 62.048-78.88 28.992-115.488-9.248-10.304-57.056 42.304-64.064-27.808-0.448-5.024 4.32-12.544 10.752-20.352 103.808 34.88 178.816 133.024 178.816 248.384zM284 60.576c-6.272 12.224-22.816 17.184-32.864 26.368-21.888 19.808-31.296 17.056-43.072 36.064-11.872 19.008-50.144 46.368-50.144 60.128s19.328 29.952 28.992 26.816c9.664-3.2 35.168-3.008 50.144 2.24 15.008 5.312 125.248 10.624 90.112 103.808-11.136 29.632-59.936 24.64-72.928 73.696-1.952 7.2-8.704 37.952-9.12 48-0.8 15.552 11.008 74.176-4 74.176-15.072 0-55.616-52.448-55.616-61.952s-10.496-42.816-10.496-71.36c0-28.512-48.576-28.064-48.576-65.984 0-34.176 26.336-51.2 20.416-67.616-5.792-16.32-52.064-16.864-71.36-18.88 33.696-87.392 112.96-152.256 208.512-165.504zM237.568 568.64c15.744-8.32 17.344-19.072 31.616-19.616 16.32-0.736 29.6-6.368 48-10.432 16.32-3.552 45.536-20.128 71.232-22.24 21.696-1.76 64.48 1.12 76 22.048-41.44 27.552-91.136 43.616-144.448 43.616-28.768 0-56.48-4.768-82.4-13.376z"></path>
</svg>
